<svg width="256" height="256" viewBox="0 0 256 256" fill="none" xmlns="http://www.w3.org/2000/svg">
<rect x="104" y="40" width="152" height="16" fill="black"/>
<path d="M104 120H256V136H104V120Z" fill="black"/>
<path d="M104 200H256V216H104V200Z" fill="black"/>
<path d="M80 48C80 65.6731 65.6731 80 48 80C30.3269 80 16 65.6731 16 48C16 30.3269 30.3269 16 48 16C65.6731 16 80 30.3269 80 48ZM24 48C24 61.2548 34.7452 72 48 72C61.2548 72 72 61.2548 72 48C72 34.7452 61.2548 24 48 24C34.7452 24 24 34.7452 24 48Z" fill="black"/>
<path d="M80 128C80 145.673 65.6731 160 48 160C30.3269 160 16 145.673 16 128C16 110.327 30.3269 96 48 96C65.6731 96 80 110.327 80 128ZM24 128C24 141.255 34.7452 152 48 152C61.2548 152 72 141.255 72 128C72 114.745 61.2548 104 48 104C34.7452 104 24 114.745 24 128Z" fill="black"/>
<path d="M80 208C80 225.673 65.6731 240 48 240C30.3269 240 16 225.673 16 208C16 190.327 30.3269 176 48 176C65.6731 176 80 190.327 80 208ZM24 208C24 221.255 34.7452 232 48 232C61.2548 232 72 221.255 72 208C72 194.745 61.2548 184 48 184C34.7452 184 24 194.745 24 208Z" fill="black"/>
</svg>
