<svg width="256" height="256" viewBox="0 0 256 256" fill="none" xmlns="http://www.w3.org/2000/svg">
<g clip-path="url(#clip0_1_2)">
<rect x="104" y="40" width="152" height="16" fill="black"/>
<path d="M104 120H256V136H104V120Z" fill="black"/>
<path d="M104 200H256V216H104V200Z" fill="black"/>
<path d="M56.25 233.906C51.1875 233.906 46.8438 232.865 43.2187 230.781C39.6146 228.698 36.8438 225.802 34.9062 222.094C32.9688 218.365 32 214.052 32 209.156C32 204.24 32.9688 199.927 34.9062 196.219C36.8646 192.49 39.6458 189.583 43.25 187.5C46.875 185.417 51.1979 184.375 56.2188 184.375C60.6563 184.375 64.5208 185.177 67.8125 186.781C71.125 188.385 73.7083 190.656 75.5625 193.594C77.4375 196.51 78.4271 199.937 78.5313 203.875H64.25C63.9583 201.417 63.125 199.49 61.75 198.094C60.3958 196.698 58.625 196 56.4375 196C54.6667 196 53.1146 196.5 51.7813 197.5C50.4479 198.479 49.4063 199.937 48.6563 201.875C47.9271 203.792 47.5625 206.167 47.5625 209C47.5625 211.833 47.9271 214.229 48.6563 216.187C49.4063 218.125 50.4479 219.594 51.7813 220.594C53.1146 221.573 54.6667 222.062 56.4375 222.062C57.8542 222.062 59.1042 221.76 60.1875 221.156C61.2917 220.552 62.1979 219.667 62.9063 218.5C63.6146 217.312 64.0625 215.875 64.25 214.187H78.5313C78.3854 218.146 77.3958 221.604 75.5625 224.562C73.75 227.521 71.1979 229.823 67.9063 231.469C64.6354 233.094 60.75 233.906 56.25 233.906Z" fill="black"/>
<path d="M31.8438 152V88H47.125V112.219H47.4375C48.0625 110.76 48.9479 109.354 50.0938 108C51.2604 106.646 52.7396 105.542 54.5313 104.687C56.3438 103.812 58.5104 103.375 61.0312 103.375C64.3646 103.375 67.4792 104.25 70.375 106C73.2917 107.75 75.6458 110.448 77.4375 114.094C79.2292 117.74 80.125 122.385 80.125 128.031C80.125 133.469 79.2604 138.021 77.5312 141.688C75.8229 145.354 73.5104 148.104 70.5938 149.938C67.6979 151.771 64.4792 152.688 60.9375 152.688C58.5208 152.688 56.4271 152.292 54.6562 151.5C52.8854 150.708 51.3958 149.667 50.1875 148.375C49 147.083 48.0833 145.698 47.4375 144.219H46.9688V152H31.8438ZM46.8125 128C46.8125 130.583 47.1563 132.833 47.8438 134.75C48.5521 136.667 49.5625 138.156 50.875 139.219C52.2083 140.26 53.8021 140.781 55.6563 140.781C57.5313 140.781 59.125 140.26 60.4375 139.219C61.75 138.156 62.7396 136.667 63.4063 134.75C64.0938 132.833 64.4375 130.583 64.4375 128C64.4375 125.417 64.0938 123.177 63.4063 121.281C62.7396 119.385 61.75 117.917 60.4375 116.875C59.1458 115.833 57.5521 115.312 55.6563 115.312C53.7813 115.312 52.1875 115.823 50.875 116.844C49.5625 117.865 48.5521 119.323 47.8438 121.219C47.1563 123.115 46.8125 125.375 46.8125 128Z" fill="black"/>
<path d="M51.375 64.8125C48.3125 64.8125 45.5938 64.3021 43.2188 63.2812C40.8646 62.2396 39 60.6771 37.625 58.5937C36.2708 56.4896 35.5938 53.8542 35.5938 50.6875C35.5938 48.0208 36.0625 45.7708 37 43.9375C37.9375 42.1042 39.2292 40.6146 40.875 39.4687C42.5208 38.3229 44.4167 37.4583 46.5625 36.875C48.7083 36.2708 51 35.8646 53.4375 35.6562C56.1667 35.4062 58.3646 35.1458 60.0313 34.875C61.6979 34.5833 62.9063 34.1771 63.6563 33.6562C64.4271 33.1146 64.8125 32.3542 64.8125 31.375V31.2187C64.8125 29.6146 64.2604 28.375 63.1562 27.5C62.0521 26.625 60.5625 26.1875 58.6875 26.1875C56.6667 26.1875 55.0417 26.625 53.8125 27.5C52.5833 28.375 51.8021 29.5833 51.4688 31.125L37.375 30.625C37.7917 27.7083 38.8646 25.1042 40.5938 22.8125C42.3438 20.5 44.7396 18.6875 47.7812 17.375C50.8438 16.0417 54.5208 15.375 58.8125 15.375C61.875 15.375 64.6979 15.7396 67.2812 16.4687C69.8646 17.1771 72.1146 18.2187 74.0313 19.5937C75.9479 20.9479 77.4271 22.6146 78.4688 24.5937C79.5313 26.5729 80.0625 28.8333 80.0625 31.375V64H65.6875V57.3125H65.3125C64.4583 58.9375 63.3646 60.3125 62.0313 61.4375C60.7188 62.5625 59.1667 63.4063 57.375 63.9687C55.6042 64.5313 53.6042 64.8125 51.375 64.8125ZM56.0938 54.8125C57.7396 54.8125 59.2188 54.4792 60.5313 53.8125C61.8646 53.1458 62.9271 52.2292 63.7188 51.0625C64.5104 49.875 64.9063 48.5 64.9063 46.9375V42.375C64.4688 42.6042 63.9375 42.8125 63.3125 43C62.7083 43.1875 62.0417 43.3646 61.3125 43.5312C60.5833 43.6979 59.8333 43.8437 59.0625 43.9687C58.2917 44.0937 57.5521 44.2083 56.8438 44.3125C55.4063 44.5417 54.1771 44.8958 53.1563 45.375C52.1563 45.8542 51.3854 46.4792 50.8438 47.25C50.3229 48 50.0625 48.8958 50.0625 49.9375C50.0625 51.5208 50.625 52.7292 51.75 53.5625C52.8958 54.3958 54.3438 54.8125 56.0938 54.8125Z" fill="black"/>
</g>
<defs>
<clipPath id="clip0_1_2">
<rect width="256" height="256" fill="white"/>
</clipPath>
</defs>
</svg>
