<svg width="256" height="256" viewBox="0 0 256 256" fill="none" xmlns="http://www.w3.org/2000/svg">
<g clip-path="url(#clip0_1_2)">
<rect x="104" y="40" width="152" height="16" fill="black"/>
<path d="M104 120H256V136H104V120Z" fill="black"/>
<path d="M104 200H256V216H104V200Z" fill="black"/>
<path d="M77.9375 198.187H62.3125C62.1042 196.583 61.6771 195.135 61.0312 193.844C60.3854 192.552 59.5313 191.448 58.4688 190.531C57.4063 189.615 56.1458 188.917 54.6875 188.437C53.25 187.937 51.6563 187.687 49.9063 187.687C46.8021 187.687 44.125 188.448 41.875 189.969C39.6458 191.49 37.9271 193.687 36.7188 196.562C35.5313 199.437 34.9375 202.917 34.9375 207C34.9375 211.25 35.5417 214.812 36.75 217.688C37.9792 220.542 39.6979 222.698 41.9063 224.156C44.1354 225.594 46.7708 226.312 49.8125 226.312C51.5208 226.312 53.0729 226.094 54.4688 225.656C55.8854 225.219 57.125 224.583 58.1875 223.75C59.2708 222.896 60.1563 221.865 60.8438 220.656C61.5521 219.427 62.0417 218.042 62.3125 216.5L77.9375 216.594C77.6667 219.427 76.8438 222.219 75.4688 224.969C74.1146 227.719 72.25 230.229 69.875 232.5C67.5 234.75 64.6042 236.542 61.1875 237.875C57.7917 239.208 53.8958 239.875 49.5 239.875C43.7083 239.875 38.5208 238.604 33.9375 236.062C29.375 233.5 25.7708 229.771 23.125 224.875C20.4792 219.979 19.1562 214.021 19.1562 207C19.1562 199.958 20.5 193.99 23.1875 189.094C25.875 184.198 29.5104 180.479 34.0938 177.937C38.6771 175.396 43.8125 174.125 49.5 174.125C53.375 174.125 56.9583 174.667 60.25 175.75C63.5417 176.812 66.4375 178.375 68.9375 180.437C71.4375 182.479 73.4688 184.99 75.0313 187.969C76.5938 190.948 77.5625 194.354 77.9375 198.187Z" fill="black"/>
<path d="M23.8438 160V96H50.5312C55.3229 96 59.3333 96.6771 62.5625 98.0312C65.8125 99.3854 68.25 101.281 69.875 103.719C71.5208 106.156 72.3438 108.979 72.3438 112.187C72.3438 114.625 71.8333 116.802 70.8125 118.719C69.7917 120.615 68.3854 122.187 66.5937 123.437C64.8021 124.687 62.7292 125.562 60.375 126.063V126.687C62.9583 126.812 65.3438 127.51 67.5313 128.781C69.7396 130.052 71.5104 131.823 72.8438 134.094C74.1771 136.344 74.8437 139.01 74.8437 142.094C74.8437 145.531 73.9688 148.604 72.2188 151.312C70.4688 154 67.9375 156.125 64.625 157.687C61.3125 159.229 57.2917 160 52.5625 160H23.8438ZM39.3125 147.531H48.875C52.2292 147.531 54.6979 146.896 56.2813 145.625C57.8854 144.354 58.6875 142.583 58.6875 140.312C58.6875 138.667 58.3021 137.25 57.5313 136.062C56.7604 134.854 55.6667 133.927 54.25 133.281C52.8333 132.615 51.1354 132.281 49.1562 132.281H39.3125V147.531ZM39.3125 122.312H47.875C49.5625 122.312 51.0625 122.031 52.375 121.469C53.6875 120.906 54.7083 120.094 55.4375 119.031C56.1875 117.969 56.5625 116.687 56.5625 115.187C56.5625 113.042 55.8021 111.354 54.2813 110.125C52.7604 108.896 50.7083 108.281 48.125 108.281H39.3125V122.312Z" fill="black"/>
<path d="M32.6875 80H16.0625L37.6563 16H58.25L79.8438 80H63.2188L48.1875 32.125H47.6875L32.6875 80ZM30.4688 54.8125H65.2188V66.5625H30.4688V54.8125Z" fill="black"/>
</g>
<defs>
<clipPath id="clip0_1_2">
<rect width="256" height="256" fill="white"/>
</clipPath>
</defs>
</svg>
